<svg width="22" height="22" viewBox="0 0 22 22" fill="none" xmlns="http://www.w3.org/2000/svg">
<path d="M15.9305 0H6.06953C2.71746 0 0 2.71746 0 6.06953V15.9305C0 19.2825 2.71746 22 6.06953 22H15.9305C19.2825 22 22 19.2825 22 15.9305V6.06953C22 2.71746 19.2825 0 15.9305 0ZM20.0473 15.9305C20.0473 18.2086 18.1923 20.0473 15.9305 20.0473H6.06953C3.79142 20.0473 1.95266 18.1923 1.95266 15.9305V6.06953C1.95266 3.80769 3.80769 1.95266 6.06953 1.95266H15.9305C18.2086 1.95266 20.0473 3.80769 20.0473 6.06953V15.9305Z" fill="black"/>
<path d="M11 5.33728C7.87572 5.33728 5.32098 7.87574 5.32098 11C5.32098 14.1243 7.85945 16.679 11 16.679C14.1242 16.679 16.679 14.1405 16.679 11C16.679 7.87574 14.1242 5.33728 11 5.33728ZM11 14.7263C8.94968 14.7263 7.27365 13.0666 7.27365 11.0163C7.28992 8.94971 8.94968 7.28994 11 7.28994C13.0503 7.28994 14.7263 8.94971 14.7263 11C14.7263 13.0503 13.0503 14.7263 11 14.7263Z" fill="black"/>
<path d="M16.9068 3.67749C16.5325 3.67749 16.1583 3.82394 15.8979 4.10057C15.6376 4.36092 15.4749 4.73518 15.4749 5.10944C15.4749 5.4837 15.6213 5.85796 15.8979 6.11832C16.1583 6.37867 16.5325 6.5414 16.9068 6.5414C17.2811 6.5414 17.6553 6.39495 17.9157 6.11832C18.176 5.85796 18.3388 5.4837 18.3388 5.10944C18.3388 4.73518 18.1923 4.36092 17.9157 4.10057C17.6553 3.82394 17.2973 3.67749 16.9068 3.67749Z" fill="black"/>
</svg>
