<svg width="23" height="22" viewBox="0 0 23 22" fill="none" xmlns="http://www.w3.org/2000/svg">
<path d="M5.21576 7.14941H0.275696V22H5.21576V7.14941Z" fill="black"/>
<path d="M21.4376 8.50571C20.4036 7.37928 19.025 6.80457 17.3247 6.80457C16.7043 6.80457 16.1299 6.87353 15.6014 7.03445C15.0959 7.19537 14.6594 7.40227 14.2917 7.67813C13.9471 7.95399 13.6484 8.20686 13.4416 8.45974C13.2348 8.68962 13.051 8.9425 12.8672 9.24135V7.1264H7.95007L7.97305 7.83905C7.97305 8.32181 7.99603 9.79307 7.99603 12.2758C7.99603 14.7586 7.99603 17.977 7.97305 21.977H12.8901V13.7011C12.8901 13.1954 12.9361 12.7816 13.051 12.4827C13.2578 11.977 13.5794 11.5402 13.993 11.1954C14.4066 10.8505 14.9351 10.6896 15.5784 10.6896C16.4286 10.6896 17.072 10.9885 17.4626 11.5862C17.8761 12.1839 18.06 13.0115 18.06 14.0459V21.977H22.977V13.4712C23 11.2873 22.4945 9.63215 21.4376 8.50571Z" fill="black"/>
<path d="M2.78022 0C1.95305 0 1.28671 0.252874 0.781219 0.735632C0.252747 1.21839 0 1.81609 0 2.55172C0 3.28736 0.252747 3.88506 0.758242 4.39081C1.26374 4.87356 1.90709 5.12644 2.73427 5.12644H2.75724C3.60739 5.12644 4.27373 4.87356 4.77922 4.39081C5.28472 3.90805 5.53746 3.28736 5.53746 2.55172C5.53746 1.81609 5.26174 1.1954 4.77922 0.712644C4.27373 0.252874 3.60739 0 2.78022 0Z" fill="black"/>
</svg>
