<svg width="37" height="36" viewBox="0 0 37 36" fill="none" xmlns="http://www.w3.org/2000/svg">
<path d="M21.817 32.8433L21.8216 22.5456C21.8781 22.1524 22.1972 21.7971 22.6101 21.7226L32.9314 21.7341C33.3255 21.7907 33.6447 21.4353 33.7199 20.9111L33.7413 15.1631C33.7978 14.77 33.4413 14.4513 32.9159 14.3759L22.5945 14.3644C22.2005 14.3078 21.8441 13.9891 21.7692 13.5771L21.7737 3.27937C21.8302 2.88625 21.4738 2.56756 20.9484 2.49208L15.1872 2.46698C14.7931 2.41037 14.4739 2.76575 14.3987 3.28992L14.3942 13.5877C14.3377 13.9808 14.0185 14.3362 13.6056 14.4106L3.28425 14.3991C2.89019 14.3425 2.57101 14.6979 2.49571 15.2221L2.47438 20.9701C2.4179 21.3632 2.77434 21.6819 3.29975 21.7574L13.6211 21.7688C14.0152 21.8254 14.3716 22.1441 14.4465 22.5561L14.4419 32.8538C14.3855 33.247 14.7419 33.5656 15.2673 33.6411L21.0285 33.6662C21.4414 33.5918 21.7605 33.2364 21.817 32.8433Z" fill="#FDD08D"/>
</svg>
